<svg width="42" height="38" viewBox="0 0 42 38" fill="none" xmlns="http://www.w3.org/2000/svg">
<path d="M11.4548 15.473C11.7288 14.7223 12.1472 14.4788 12.6984 14.4942L12.335 14.2564C12.1382 11.8256 12.7157 7.60864 10.039 6.81023C15.1036 0.638147 20.9409 -2.71808 25.3239 2.77209C30.6042 3.0455 32.7223 11.32 28.5108 14.8032L28.4862 15.0087C28.6511 14.9593 28.8159 14.9278 28.9743 14.9156C29.2852 14.8922 29.5829 14.9423 29.8364 15.075C30.1145 15.2214 30.327 15.4584 30.4361 15.7941C30.5411 16.1153 30.5452 16.5254 30.4073 17.0294L29.7486 18.8721C29.642 19.1714 29.5444 19.3817 29.3319 19.5484C29.1129 19.719 28.8479 19.7829 28.4378 19.7611C28.3697 19.7579 28.3016 19.7506 28.2352 19.7385C28.2025 20.191 28.1008 20.6361 27.9333 21.0586C27.7061 21.6346 27.3894 22.1046 27.0777 22.5381C26.725 23.0275 26.3517 23.4708 25.9621 23.8688C26.2656 24.9196 26.6569 25.6937 27.1261 26.2826C29.5083 27.9717 35.9239 28.3689 38.1577 29.5968C41.3823 31.3764 41.2937 34.816 42 37.9999H0C0.699727 34.8443 0.627539 31.3481 3.84234 29.5968C6.67406 28.0421 12.6829 28.1416 15.0773 26.1265C15.4219 25.5942 15.7131 24.9568 15.9362 24.1964C15.4252 23.6722 14.9461 23.0494 14.5097 22.3262L14.4802 22.2801C14.0864 21.6281 13.6106 20.841 13.4613 19.7482L13.3334 19.7506C13.0651 19.7474 12.8067 19.6867 12.5647 19.5516C12.1759 19.3332 11.9036 18.9611 11.7198 18.5412L11.7034 18.4992C11.4967 18.0065 11.4023 17.4452 11.3802 17.0205C11.372 16.8619 11.372 16.5472 11.381 16.2463V16.2423C11.3876 15.9842 11.4015 15.7343 11.4212 15.5943C11.4278 15.5515 11.4384 15.511 11.4548 15.473ZM26.4608 27.0956L26.4091 27.0349C25.8981 26.4291 25.4674 25.6638 25.1262 24.6664C24.5692 25.1154 23.9384 25.4964 23.26 25.7795L23.2247 25.7949H23.2239C22.3445 26.1734 21.4364 26.3563 20.5365 26.336C20.0484 26.3255 19.5636 26.2551 19.087 26.1249L19.069 26.1201C18.2889 25.9154 17.5137 25.5465 16.7721 24.9827C16.467 25.8499 16.0707 26.5682 15.6073 27.1611L18.3898 33.8623L20.0246 30.1444L19.2265 29.2846C18.6268 28.4198 18.9755 27.4159 19.9443 27.2614C20.3675 27.1943 22.0804 27.1846 22.4725 27.2881C23.3502 27.5195 23.6119 28.4991 23.0975 29.2846L22.2994 30.1444L23.9203 33.8623L26.4608 27.0956ZM16.832 23.6828L16.8648 23.7103C18.124 24.8978 19.5193 25.3443 20.8441 25.2933C22.4421 25.231 23.9523 24.4545 25.0154 23.3802C25.0491 23.3463 25.0876 23.3155 25.1311 23.2921C25.5248 22.903 25.903 22.4597 26.2598 21.9646C26.5338 21.5836 26.8111 21.1735 26.9973 20.7019C27.1786 20.2424 27.282 19.7045 27.2254 19.0428C27.2188 18.936 27.2442 18.826 27.3082 18.7305C27.3812 18.6211 27.4954 18.5447 27.6255 18.5181C27.7556 18.4916 27.8911 18.5171 28.0022 18.589C28.09 18.6456 28.1794 18.6925 28.2688 18.7249C28.3459 18.7524 28.4205 18.7694 28.4886 18.7726C28.6322 18.7799 28.697 18.7799 28.706 18.7726C28.7216 18.7613 28.7536 18.6763 28.8012 18.5429L29.4402 16.7584C29.5214 16.4575 29.5271 16.2407 29.4804 16.0967C29.4566 16.0239 29.4148 15.9745 29.3639 15.9478C29.2884 15.9082 29.1777 15.8944 29.0489 15.9042C28.7684 15.9252 28.4402 16.0595 28.149 16.2771C28.0424 16.3563 27.9037 16.3944 27.7618 16.3701C27.4887 16.324 27.3041 16.0676 27.3509 15.7982C27.8242 13.0745 27.6076 11.2998 27.0195 10.0896C26.5043 9.02911 25.6823 8.38683 24.7907 7.90714C22.8121 9.40122 21.4192 9.5719 20.0296 9.74096C18.8803 9.88091 17.7335 10.0209 16.2143 11.0571C15.4965 11.5465 15.0183 12.1386 14.7714 12.8262C14.5179 13.5324 14.4982 14.3543 14.7033 15.2853C14.7295 15.3792 14.7271 15.4819 14.6902 15.5806C14.5966 15.837 14.3079 15.9697 14.0479 15.8775L13.5877 15.7132C12.9937 15.5086 12.5729 15.4131 12.4105 15.7812C12.3974 15.9001 12.3884 16.0821 12.3834 16.2698V16.2738C12.3761 16.5448 12.3761 16.8279 12.3826 16.9703C12.3998 17.306 12.4712 17.7428 12.6263 18.1133L12.6443 18.1497C12.7485 18.39 12.8871 18.5938 13.0594 18.6901C13.1463 18.7386 13.2431 18.7613 13.3448 18.7621C13.4695 18.7637 13.6082 18.7378 13.7558 18.6949C13.8026 18.6788 13.8526 18.6699 13.9051 18.6691C13.9709 18.6675 14.0364 18.6787 14.0979 18.702C14.1593 18.7254 14.2155 18.7604 14.2632 18.8052C14.3108 18.85 14.3491 18.9036 14.3758 18.9629C14.4025 19.0223 14.417 19.0863 14.4186 19.1512C14.4457 20.2918 14.942 21.112 15.3415 21.7729L15.3694 21.819C15.8156 22.5584 16.3078 23.1788 16.832 23.6828Z" fill="#246BFD"/>
</svg>
