<svg width="25" height="42" viewBox="0 0 25 42" fill="none" xmlns="http://www.w3.org/2000/svg">
<g clip-path="url(#clip0_43_442)">
<path fill-rule="evenodd" clip-rule="evenodd" d="M4.71618 1.16005e-05H20.2732C20.8934 -0.00133692 21.5078 0.114897 22.0812 0.342059C22.6547 0.569221 23.1758 0.902849 23.6149 1.32384C24.054 1.74483 24.4023 2.24491 24.64 2.79546C24.8777 3.346 25 3.93619 25 4.53224V37.4678C25 38.0638 24.8777 38.654 24.64 39.2046C24.4023 39.7551 24.054 40.2552 23.6149 40.6762C23.1758 41.0972 22.6547 41.4308 22.0812 41.658C21.5078 41.8851 20.8934 42.0014 20.2732 42H4.71618C4.09671 42.0005 3.48323 41.8835 2.91082 41.6559C2.33842 41.4283 1.81832 41.0945 1.38029 40.6736C0.942264 40.2526 0.594891 39.7528 0.358046 39.2027C0.121202 38.6526 -0.000466357 38.0631 1.34329e-06 37.4678V4.53224C1.34329e-06 3.33022 0.496883 2.17743 1.38134 1.32747C2.26579 0.477513 3.46537 1.16005e-05 4.71618 1.16005e-05ZM4.59525 27.1318V23.4028C4.59525 23.1499 4.6998 22.9074 4.88589 22.7285C5.07199 22.5497 5.32439 22.4492 5.58757 22.4492C5.85075 22.4492 6.10315 22.5497 6.28924 22.7285C6.47534 22.9074 6.57989 23.1499 6.57989 23.4028V26.1372C10.5231 26.1372 14.4651 26.1372 18.4059 26.1372V23.4028C18.4059 23.1499 18.5104 22.9074 18.6965 22.7285C18.8826 22.5497 19.135 22.4492 19.3982 22.4492C19.6614 22.4492 19.9138 22.5497 20.0999 22.7285C20.286 22.9074 20.3905 23.1499 20.3905 23.4028V27.1182C20.3796 27.3621 20.2717 27.5928 20.0891 27.7626C19.9064 27.9324 19.663 28.0284 19.4089 28.0308C14.7994 28.0308 10.1935 28.0308 5.59112 28.0308C5.33702 28.0284 5.09357 27.9324 4.91093 27.7626C4.72829 27.5928 4.62039 27.3621 4.60948 27.1182L4.59525 27.1318ZM15.4787 18.9048C15.5721 18.817 15.6826 18.7478 15.8039 18.7011C15.9251 18.6544 16.0548 18.6311 16.1854 18.6325C16.316 18.6339 16.4451 18.6601 16.5652 18.7094C16.6853 18.7588 16.7941 18.8304 16.8854 18.9202C16.9767 19.0099 17.0487 19.1161 17.0973 19.2326C17.146 19.3492 17.1702 19.4737 17.1687 19.5993C17.1672 19.7248 17.14 19.8488 17.0887 19.9642C17.0373 20.0797 16.9628 20.1842 16.8694 20.272L13.0993 23.8438C12.9136 24.0199 12.6631 24.1187 12.4022 24.1187C12.1412 24.1187 11.8908 24.0199 11.7051 23.8438L7.99189 20.3198C7.89848 20.2321 7.82396 20.1275 7.7726 20.0121C7.72124 19.8967 7.69404 19.7726 7.69256 19.6471C7.69107 19.5216 7.71533 19.397 7.76394 19.2805C7.81256 19.164 7.88457 19.0578 7.97589 18.968C8.0672 18.8783 8.17602 18.8067 8.29613 18.7573C8.41624 18.7079 8.54529 18.6818 8.67591 18.6804C8.80653 18.6789 8.93617 18.7023 9.05741 18.749C9.17866 18.7957 9.28914 18.8649 9.38256 18.9526L11.4277 20.9009V14.0376C11.4428 13.7941 11.5542 13.5654 11.7389 13.3981C11.9237 13.2309 12.1679 13.1377 12.4218 13.1377C12.6756 13.1377 12.9198 13.2309 13.1046 13.3981C13.2894 13.5654 13.4007 13.7941 13.4159 14.0376L13.3945 20.8428L15.4609 18.8809L15.4787 18.9048ZM23.8619 35.7759V4.67238H1.13103V35.7759H23.8619Z" fill="#246BFD"/>
</g>
<defs>
<clipPath id="clip0_43_442">
<rect width="25" height="42" fill="white"/>
</clipPath>
</defs>
</svg>
