<svg width="20" height="20" viewBox="0 0 20 20" fill="none" xmlns="http://www.w3.org/2000/svg">
<path d="M9.6859 19.3718C4.3451 19.3718 0 15.0269 0 9.6859C0 4.3451 4.3451 0 9.6859 0C15.0267 0 19.3718 4.3451 19.3718 9.6859C19.3718 15.0269 15.0267 19.3718 9.6859 19.3718ZM9.6859 0.430485C4.58251 0.430485 0.430485 4.58251 0.430485 9.6859C0.430485 14.7893 4.58251 18.9413 9.6859 18.9413C14.7893 18.9413 18.9413 14.7893 18.9413 9.6859C18.9413 4.58251 14.7893 0.430485 9.6859 0.430485Z" fill="#454545"/>
<path d="M2.55152 8.90188C1.81088 8.90188 1.04806 8.8767 0.262207 8.82633L0.289758 8.39671C7.76383 8.87584 13.155 7.04628 16.3122 2.95947L16.6527 3.22271C13.7379 6.99613 9.00018 8.90188 2.55152 8.90188Z" fill="#454545"/>
<path d="M3.4985 16.8095L3.13452 16.5801C7.05451 10.363 12.4541 8.24846 19.1836 10.2969L19.0584 10.7087C12.5378 8.72458 7.30247 10.7769 3.4985 16.8095Z" fill="#454545"/>
<path d="M13.7056 18.2034C12.3444 11.5572 9.78018 5.765 6.08447 0.988554L6.42499 0.725098C10.1612 5.55406 12.7527 11.4056 14.1272 18.1171L13.7056 18.2034Z" fill="#454545"/>
</svg>
