<svg width="32" height="46" viewBox="0 0 32 46" fill="none" xmlns="http://www.w3.org/2000/svg">
<g clip-path="url(#clip0_43_435)">
<path d="M11.8424 31.112C11.8424 31.3473 11.749 31.573 11.5828 31.7394C11.4165 31.9058 11.1911 31.9993 10.9559 31.9993C10.7208 31.9993 10.4953 31.9058 10.3291 31.7394C10.1628 31.573 10.0694 31.3473 10.0694 31.112V29.4761C10.0223 29.4497 9.97731 29.4197 9.93479 29.3863C9.37371 28.9371 8.75279 28.4504 8.22912 27.99C7.45483 27.3573 6.5646 26.6273 5.94741 26.1182C5.55296 25.7841 5.08513 25.5481 4.58213 25.4294C4.32712 25.369 4.06035 25.3806 3.81159 25.4631C3.61316 25.5397 3.45312 25.6918 3.36647 25.8861C3.21893 26.284 3.16641 26.7109 3.21311 27.1327C3.26859 27.665 3.41404 28.184 3.64326 28.6675C3.94758 29.3378 4.32384 29.9729 4.76541 30.5618L4.82152 30.6441L11.5544 40.8301C11.6298 40.9424 11.6784 41.0705 11.6966 41.2045C11.7518 42.0673 11.9971 42.9072 12.4147 43.664C12.5129 43.8374 12.6562 43.9808 12.8295 44.0791C13.0028 44.1773 13.1994 44.2266 13.3985 44.2217H23.9579C24.6017 44.2172 25.2285 44.0146 25.7534 43.6415C26.4391 43.1301 27.0015 42.4713 27.3992 41.7136L27.5264 41.4965C28.8355 39.2504 30.1036 37.053 30.2345 34.455L30.1672 31.4602C30.1672 31.419 30.1672 31.3741 30.1672 31.3292V30.6216C30.1933 28.6301 30.2233 26.1669 28.4016 25.8562H27.2234C27.2234 26.4177 27.1822 26.9792 27.1486 27.5408C27.1149 28.0349 27.085 28.5141 27.085 28.967C27.0704 29.1919 26.9708 29.4027 26.8065 29.5568C26.6422 29.7109 26.4255 29.7966 26.2004 29.7966C25.9752 29.7966 25.7585 29.7109 25.5942 29.5568C25.4299 29.4027 25.3304 29.1919 25.3157 28.967C25.3157 28.5103 25.3494 27.9787 25.3831 27.4322C25.5028 25.5604 25.6374 23.4005 24.1375 23.1309H22.9742C22.9107 23.1368 22.8469 23.1368 22.7834 23.1309C22.7834 23.8085 22.7498 24.5123 22.7086 25.1898C22.6749 25.684 22.645 26.1632 22.645 26.6161C22.6529 26.7372 22.6359 26.8587 22.595 26.9729C22.5541 27.0872 22.4902 27.1918 22.4073 27.2804C22.3243 27.3689 22.2242 27.4395 22.1129 27.4878C22.0016 27.536 21.8817 27.5609 21.7604 27.5609C21.6391 27.5609 21.5191 27.536 21.4079 27.4878C21.2966 27.4395 21.1964 27.3689 21.1135 27.2804C21.0306 27.1918 20.9667 27.0872 20.9258 26.9729C20.8849 26.8587 20.8679 26.7372 20.8758 26.6161C20.8758 26.1594 20.9094 25.6316 20.9431 25.0813C21.0628 23.2095 21.1974 21.0495 19.6975 20.78H18.5342C18.4558 20.7816 18.3777 20.7715 18.3023 20.7501V24.1828C18.3023 24.4181 18.2089 24.6438 18.0426 24.8102C17.8764 24.9766 17.6509 25.0701 17.4158 25.0701C17.1807 25.0701 16.9552 24.9766 16.7889 24.8102C16.6227 24.6438 16.5293 24.4181 16.5293 24.1828V14.9477C16.5293 13.4091 15.9009 12.4358 15.1004 12.0277C14.8143 11.8814 14.4978 11.8045 14.1765 11.8031C13.8563 11.8037 13.5409 11.8807 13.2564 12.0277C12.4596 12.432 11.8424 13.4091 11.8424 14.9851V31.112ZM4.45869 14.0867C4.61726 14.0777 4.77599 14.1011 4.92517 14.1557C5.07434 14.2102 5.21083 14.2947 5.32627 14.4038C5.4417 14.513 5.53366 14.6446 5.59651 14.7906C5.65936 14.9365 5.69177 15.0938 5.69177 15.2528C5.69177 15.4117 5.65936 15.569 5.59651 15.7149C5.53366 15.8609 5.4417 15.9925 5.32627 16.1017C5.21083 16.2108 5.07434 16.2953 4.92517 16.3498C4.77599 16.4044 4.61726 16.4278 4.45869 16.4188H1.16331C0.865703 16.402 0.585832 16.2718 0.381105 16.0549C0.176379 15.8381 0.0623169 15.5511 0.0623169 15.2528C0.0623169 14.9544 0.176379 14.6674 0.381105 14.4506C0.585832 14.2337 0.865703 14.1035 1.16331 14.0867H4.45869ZM7.78774 7.11253C7.99395 7.3347 8.10575 7.62843 8.09948 7.9316C8.09321 8.23477 7.96938 8.52361 7.75416 8.73706C7.53894 8.9505 7.24922 9.07181 6.94624 9.07533C6.64327 9.07885 6.35081 8.96431 6.1307 8.75592L3.51235 6.13548C3.29459 5.91557 3.17305 5.61809 3.17445 5.30849C3.17585 4.99889 3.30009 4.70253 3.51983 4.4846C3.73956 4.26668 4.0368 4.14503 4.34616 4.14644C4.65551 4.14784 4.95163 4.27218 5.16939 4.49209L7.78774 7.11253ZM23.1238 16.4114C22.8262 16.3945 22.5463 16.2643 22.3416 16.0474C22.1369 15.8306 22.0228 15.5436 22.0228 15.2453C22.0228 14.9469 22.1369 14.6599 22.3416 14.4431C22.5463 14.2263 22.8262 14.096 23.1238 14.0792H26.4192C26.5777 14.0702 26.7365 14.0937 26.8857 14.1482C27.0348 14.2027 27.1713 14.2872 27.2868 14.3963C27.4022 14.5055 27.4942 14.6371 27.557 14.7831C27.6198 14.929 27.6523 15.0863 27.6523 15.2453C27.6523 15.4042 27.6198 15.5615 27.557 15.7075C27.4942 15.8534 27.4022 15.985 27.2868 16.0942C27.1713 16.2034 27.0348 16.2878 26.8857 16.3423C26.7365 16.3969 26.5777 16.4204 26.4192 16.4114H23.1238ZM21.4331 8.50885C21.2125 8.71665 20.9198 8.83046 20.6169 8.82622C20.314 8.82197 20.0246 8.70001 19.8099 8.48611C19.5952 8.27221 19.472 7.98314 19.4664 7.68001C19.4608 7.37687 19.5732 7.08343 19.7798 6.86172L22.3981 4.24128C22.6187 4.03348 22.9114 3.91967 23.2143 3.92392C23.5173 3.92816 23.8067 4.05012 24.0214 4.26402C24.2361 4.47792 24.3592 4.76699 24.3648 5.07012C24.3705 5.37326 24.2581 5.6667 24.0514 5.88841L21.4331 8.50885ZM15.0742 4.46214C15.0832 4.62083 15.0598 4.77969 15.0053 4.92899C14.9508 5.07829 14.8664 5.21488 14.7573 5.33041C14.6482 5.44594 14.5168 5.53797 14.3709 5.60087C14.225 5.66377 14.0679 5.69621 13.9091 5.69621C13.7503 5.69621 13.5931 5.66377 13.4472 5.60087C13.3014 5.53797 13.1699 5.44594 13.0608 5.33041C12.9517 5.21488 12.8674 5.07829 12.8129 4.92899C12.7584 4.77969 12.7349 4.62083 12.7439 4.46214V1.16413C12.7608 0.866284 12.8909 0.586189 13.1075 0.381299C13.3242 0.176409 13.611 0.0622559 13.9091 0.0622559C14.2072 0.0622559 14.4939 0.176409 14.7106 0.381299C14.9273 0.586189 15.0574 0.866284 15.0742 1.16413V4.46214ZM25.0988 33.871C25.0916 33.7715 25.105 33.6716 25.1382 33.5775C25.1713 33.4834 25.2235 33.3972 25.2914 33.3241C25.3593 33.2511 25.4415 33.1929 25.5329 33.153C25.6243 33.1132 25.7229 33.0927 25.8226 33.0927C25.9223 33.0927 26.0209 33.1132 26.1123 33.153C26.2037 33.1929 26.2859 33.2511 26.3538 33.3241C26.4217 33.3972 26.4738 33.4834 26.507 33.5775C26.5401 33.6716 26.5535 33.7715 26.5464 33.871V37.1802C26.5332 37.3634 26.4512 37.5347 26.3169 37.6598C26.1827 37.7848 26.006 37.8544 25.8226 37.8544C25.6391 37.8544 25.4625 37.7848 25.3282 37.6598C25.1939 37.5347 25.1119 37.3634 25.0988 37.1802V33.871ZM20.8122 32.4073C20.8253 32.2242 20.9073 32.0528 21.0416 31.9278C21.1759 31.8027 21.3525 31.7332 21.536 31.7332C21.7194 31.7332 21.896 31.8027 22.0303 31.9278C22.1646 32.0528 22.2466 32.2242 22.2597 32.4073V37.1802C22.2466 37.3634 22.1646 37.5347 22.0303 37.6598C21.896 37.7848 21.7194 37.8544 21.536 37.8544C21.3525 37.8544 21.1759 37.7848 21.0416 37.6598C20.9073 37.5347 20.8253 37.3634 20.8122 37.1802V32.4073ZM10.0694 27.2226V14.9739C10.0694 12.6304 11.1168 11.1181 12.4521 10.4368C12.9857 10.1673 13.5751 10.0269 14.1728 10.0269C14.7705 10.0269 15.3598 10.1673 15.8934 10.4368C17.2437 11.1181 18.3023 12.6304 18.3023 14.9289V19.0093C18.378 18.9897 18.456 18.9797 18.5342 18.9794H19.7536C19.8203 18.9793 19.8868 18.9868 19.9519 19.0019C20.5989 19.0587 21.2091 19.3276 21.6879 19.7669C22.1667 20.2061 22.4874 20.7912 22.6001 21.4314C22.7173 21.3769 22.845 21.3487 22.9742 21.349H24.1936C24.2603 21.3489 24.3268 21.3564 24.3918 21.3715C26.1424 21.641 26.8493 22.7191 27.1 24.0818C27.146 24.0779 27.1923 24.0779 27.2384 24.0818H28.4578C28.5245 24.0816 28.591 24.0892 28.656 24.1042C32.0225 24.6208 31.9663 27.9563 31.9327 30.6441C31.9327 31.9094 31.9701 33.1747 32 34.44C32.0019 34.4737 32.0019 34.5074 32 34.5411C31.8504 37.5808 30.4739 39.9542 29.0562 42.4024L28.9365 42.6158C28.4057 43.602 27.662 44.4575 26.7596 45.1202C25.9404 45.6946 24.9657 46.0054 23.9654 46.0111H13.4135C12.9196 46.0305 12.4296 45.9162 11.9952 45.6803C11.5607 45.4445 11.1979 45.0958 10.9447 44.671C10.3965 43.7486 10.0616 42.7151 9.96471 41.6462L3.36647 31.6212C2.84733 30.9226 2.40584 30.1694 2.04981 29.3751C1.73621 28.7013 1.54254 27.9779 1.47751 27.2375C1.40758 26.5291 1.51292 25.8143 1.78423 25.1562C2.04356 24.5471 2.53298 24.0654 3.14578 23.816C3.71114 23.5992 4.32773 23.5536 4.91877 23.685C5.71234 23.8596 6.45169 24.2244 7.0733 24.7481C7.6082 25.1898 8.49095 25.9161 9.35127 26.6199L10.0994 27.2226H10.0694Z" fill="#246BFD"/>
</g>
<defs>
<clipPath id="clip0_43_435">
<rect width="32" height="46" fill="white"/>
</clipPath>
</defs>
</svg>
