<svg width="20" height="20" viewBox="0 0 20 20" fill="none" xmlns="http://www.w3.org/2000/svg">
<path d="M19.3135 5.69251C19.2663 4.6615 19.1025 3.95744 18.8632 3.34142C18.62 2.69505 18.2388 2.10959 17.7461 1.62573C17.2624 1.13304 16.6768 0.751411 16.0304 0.508187C15.4144 0.269053 14.7103 0.105469 13.6793 0.0585459C12.6463 0.0114078 12.3164 0 9.6859 0C7.05543 0 6.72546 0.0114078 5.69251 0.0583307C4.6615 0.105469 3.95744 0.269268 3.34142 0.508618C2.69505 0.751841 2.10959 1.13304 1.62573 1.62573C1.13304 2.10937 0.751411 2.69483 0.508187 3.34121C0.269053 3.95744 0.105469 4.6615 0.0585459 5.6923C0.0111926 6.72546 0 7.05543 0 9.6859C0 12.3166 0.0111926 12.6466 0.0585459 13.6795C0.105469 14.7103 0.269268 15.4146 0.508833 16.0306C0.752057 16.6768 1.13325 17.2624 1.62594 17.7461C2.10959 18.2388 2.69526 18.6202 3.34164 18.8632C3.95766 19.1028 4.66172 19.2663 5.69273 19.3135C6.72568 19.3606 7.05564 19.3718 9.68612 19.3718C12.3166 19.3718 12.6466 19.3608 13.6795 19.3135C14.7105 19.2663 15.4146 19.1028 16.0306 18.8632C17.3317 18.3602 18.3602 17.3315 18.8632 16.0306C19.1028 15.4144 19.2663 14.7103 19.3135 13.6795C19.3606 12.6463 19.3718 12.3164 19.3718 9.6859C19.3718 7.05543 19.3606 6.72546 19.3135 5.69251ZM17.57 13.6001C17.527 14.5446 17.3692 15.0573 17.2366 15.3986C16.9107 16.2435 16.243 16.9109 15.3984 17.2368C15.0573 17.3694 14.5444 17.5272 13.5999 17.5702C12.5788 17.6169 12.2723 17.6266 9.6859 17.6266C7.09934 17.6266 6.79305 17.6169 5.77194 17.5702C4.82767 17.5272 4.31475 17.3694 3.97337 17.2368C3.55279 17.0814 3.17224 16.8339 2.85971 16.5121C2.53792 16.1996 2.29039 15.8192 2.13499 15.3984C2.0024 15.0573 1.84463 14.5444 1.80158 13.5999C1.75509 12.5785 1.74518 12.2723 1.74518 9.6859C1.74518 7.09955 1.75509 6.79326 1.80158 5.77194C1.84484 4.82745 2.0024 4.31475 2.13499 3.97337C2.29039 3.55257 2.53792 3.17203 2.85971 2.85949C3.17224 2.53771 3.55279 2.29018 3.97359 2.13499C4.31475 2.00218 4.82767 1.84463 5.77215 1.80136C6.79326 1.75509 7.09955 1.74518 9.6859 1.74518H9.68569C12.272 1.74518 12.5783 1.75509 13.5997 1.80179C14.5441 1.84484 15.0568 2.00261 15.3982 2.1352C15.8188 2.29061 16.1994 2.53814 16.5119 2.85971C16.8337 3.17224 17.0812 3.55279 17.2364 3.97359C17.3692 4.31475 17.527 4.82767 17.57 5.77215C17.6165 6.79348 17.6264 7.09977 17.6264 9.68612C17.6264 12.2725 17.6167 12.5785 17.57 13.6001Z" fill="#454545"/>
<path d="M9.68561 4.71191C6.93869 4.71191 4.71179 6.93881 4.71179 9.68573C4.71179 12.4327 6.93869 14.6596 9.68561 14.6596C12.4327 14.6596 14.6594 12.4327 14.6594 9.68573C14.6594 6.93881 12.4327 4.71191 9.68561 4.71191ZM9.68561 12.9144C7.90276 12.9142 6.45719 11.4688 6.45719 9.68573C6.45719 7.90267 7.90254 6.4571 9.68583 6.4571C11.4689 6.45731 12.9145 7.90267 12.9145 9.68573C12.9145 11.4688 11.4689 12.9144 9.68561 12.9144Z" fill="#454545"/>
<path d="M16.0185 4.51582C16.0185 5.15768 15.498 5.67813 14.8562 5.67813C14.2141 5.67813 13.6938 5.15768 13.6938 4.51582C13.6938 3.87376 14.2143 3.35352 14.8562 3.35352C15.498 3.35352 16.0185 3.87397 16.0185 4.51582Z" fill="#454545"/>
</svg>
