<svg width="45" height="42" viewBox="0 0 45 42" fill="none" xmlns="http://www.w3.org/2000/svg">
<path fill-rule="evenodd" clip-rule="evenodd" d="M36.2063 25.0568C37.884 25.0568 39.5241 25.5535 40.9192 26.484C42.3142 27.4146 43.4017 28.7372 44.0441 30.2848C44.6864 31.8324 44.8549 33.5353 44.5281 35.1785C44.2013 36.8216 43.394 38.3311 42.2082 39.5162C41.0224 40.7012 39.5113 41.5086 37.866 41.8363C36.2207 42.164 34.515 41.9973 32.9646 41.3572C31.4141 40.7171 30.0886 39.6324 29.1554 38.2403C28.2223 36.8481 27.7235 35.2109 27.7221 33.5357C27.7206 32.4224 27.939 31.3198 28.3648 30.2909C28.7906 29.2621 29.4154 28.3271 30.2034 27.5396C30.9914 26.7521 31.9272 26.1274 32.9573 25.7014C33.9873 25.2754 35.0914 25.0563 36.2063 25.0568ZM13.5137 19.9731C12.7864 18.8039 11.4045 17.2171 11.4045 15.8517C11.4198 15.407 11.5698 14.9774 11.8347 14.6195C12.0996 14.2617 12.4669 13.9924 12.8882 13.8473C12.8191 12.6889 12.7719 11.5161 12.7719 10.3541C12.7719 9.66416 12.7719 8.9706 12.8119 8.28793C12.8492 7.93515 12.9273 7.58787 13.0446 7.25304C13.5781 5.50527 14.7451 4.01892 16.3176 3.08442C16.8828 2.73273 17.4838 2.44182 18.1104 2.21656C19.2378 1.80624 18.6923 0.0378442 19.9287 0.00153221C22.8381 -0.0710918 27.5657 2.45259 29.4276 4.45702C30.6028 5.66871 31.2791 7.27713 31.3223 8.96334L31.2059 14.0216C31.4795 14.0787 31.7343 14.2039 31.9466 14.3854C32.1589 14.5669 32.3219 14.799 32.4206 15.0601C32.8133 16.6542 31.1587 18.6405 30.3877 19.9114C29.6604 21.0807 26.9584 24.2688 26.9547 24.3052C26.9299 24.6613 27.0012 25.0176 27.1611 25.3369C27.321 25.6562 27.5637 25.9269 27.8639 26.1208C26.3811 27.7893 25.4336 29.8636 25.1438 32.0755C24.854 34.2874 25.2353 36.5353 26.2383 38.5286H0C0 26.7126 16.994 29.4143 16.9176 24.2725C16.9176 24.1999 13.7937 20.3798 13.5137 19.9368V19.9731ZM34.7808 29.85C34.7808 29.4288 34.7408 29.1238 35.2608 29.1238H36.9482C37.4901 29.1238 37.6355 29.2944 37.6282 29.8028V32.1013H39.9157C40.3339 32.1013 40.643 32.0578 40.643 32.577L40.6212 34.2619C40.6212 34.8066 40.4539 34.9518 39.9411 34.9446H37.6428V37.2395C37.6428 37.7479 37.5046 37.9222 36.9627 37.9185L35.2753 37.9367C34.7553 37.9367 34.7917 37.6462 34.7953 37.2104V34.9591H32.4824C31.9733 34.9591 31.7987 34.8211 31.8024 34.2764L31.7805 32.5916C31.7805 32.0723 32.0751 32.1122 32.5079 32.1159H34.7953V29.8318L34.7808 29.85Z" fill="#246BFD"/>
</svg>
