<svg width="20" height="27" viewBox="0 0 20 27" fill="none" xmlns="http://www.w3.org/2000/svg">
<path fill-rule="evenodd" clip-rule="evenodd" d="M10.0012 0.00242711C10.4711 -0.0173483 10.8415 0.147447 11.2161 0.389146C11.6904 0.694566 12.2253 1.29881 12.8859 1.68114C13.8149 2.21947 15.5345 1.47679 16.4137 2.80394C16.927 3.57738 16.9508 4.18382 16.9898 4.78368C17.031 5.42967 17.1436 6.02513 17.7954 6.89964C18.8761 8.34984 19.1013 9.31444 18.5448 10.3186C18.1658 11.0041 17.3666 11.3843 17.1826 11.8193C16.7884 12.7422 17.2237 13.4387 16.6866 14.5154C16.312 15.2624 15.7359 15.7546 14.9671 16.0051C14.3195 16.216 13.6698 15.9106 13.1501 16.1326C12.2383 16.5215 11.567 17.4245 10.8415 17.6531C10.5621 17.741 10.2827 17.7849 10.0033 17.7827C9.72397 17.7849 9.4446 17.741 9.16523 17.6531C8.43973 17.4245 7.76837 16.5215 6.85662 16.1326C6.33686 15.9106 5.68716 16.2182 5.03962 16.0051C4.27081 15.7546 3.69474 15.2624 3.32007 14.5154C2.78082 13.4387 3.21612 12.7422 2.82414 11.8193C2.64005 11.3843 1.84092 11.0041 1.46193 10.3186C0.901017 9.31444 1.12625 8.34984 2.20692 6.90184C2.85879 6.02733 2.9714 5.43187 3.01255 4.78587C3.05153 4.18602 3.07535 3.57958 3.58862 2.80614C4.47005 1.47899 6.18959 2.22167 7.1165 1.68334C7.77703 1.30101 8.31195 0.696763 8.78624 0.391343C9.15873 0.147447 9.53123 -0.0195455 10.0012 0.00242711ZM10.0012 5.70653L10.9671 8.10155L13.5117 8.29271L11.5648 9.96483L12.1712 12.4785L10.0012 11.1162L7.83117 12.4785L8.43756 9.96483L6.49062 8.29271L9.03529 8.10155L10.0012 5.70653ZM19.2659 24.8447L16.7646 24.3899L15.5236 26.6443C14.6227 27.7759 14.051 25.9148 13.7998 25.2666L11.385 20.6457C11.9416 20.4502 12.613 19.8855 13.3017 19.2505C14.6769 19.279 15.9589 19.0373 16.901 17.8201L19.6752 23.2583L19.9156 23.7812C20.1062 24.4602 20.0066 24.9084 19.2659 24.8447ZM0.73426 24.8447L3.23778 24.3899L4.47871 26.6443C5.37963 27.7759 5.95137 25.9148 6.20259 25.2666L8.61731 20.6457C8.06074 20.4502 7.38938 19.8855 6.70069 19.2505C5.32549 19.279 4.04341 19.0373 3.10134 17.8201L0.324948 23.2583L0.0845577 23.7812C-0.106022 24.4602 -0.00640059 24.9084 0.73426 24.8447ZM9.97519 3.53783C12.9638 3.53783 15.3872 5.99657 15.3872 9.02879C15.3872 12.061 12.9638 14.5198 9.97519 14.5198C6.98656 14.5198 4.56317 12.061 4.56317 9.02879C4.56534 5.99657 6.98656 3.53783 9.97519 3.53783Z" fill="#246BFD"/>
</svg>
