<svg width="20" height="20" viewBox="0 0 20 20" fill="none" xmlns="http://www.w3.org/2000/svg">
<path d="M0.318559 6.42068H4.33433V19.3374H0.318559V6.42068ZM2.32655 0C3.61004 0 4.65311 1.04306 4.65311 2.32871C4.65311 3.61306 3.61004 4.65612 2.32655 4.65612C1.04005 4.65612 0 3.61306 0 2.32871C0 1.04306 1.04005 0 2.32655 0Z" fill="#454545"/>
<path d="M6.85229 6.42044H10.703V8.18671H10.7579C11.2938 7.17077 12.6038 6.10059 14.5562 6.10059C18.6215 6.10059 19.3719 8.77497 19.3719 12.2529V19.3371H15.3591V13.0557C15.3591 11.5574 15.3331 9.63077 13.273 9.63077C11.1838 9.63077 10.8651 11.2638 10.8651 12.9481V19.3371H6.85229V6.42044Z" fill="#454545"/>
</svg>
