<svg width="165" height="32" viewBox="0 0 165 32" fill="none" xmlns="http://www.w3.org/2000/svg">
<path fill-rule="evenodd" clip-rule="evenodd" d="M17.8765 1L16.3868 3.58025L0 31.963H2.97942L17.8765 6.1605L32.7736 31.963H35.753L19.3662 3.58025L17.8765 1Z" fill="#3C64B1"/>
<path fill-rule="evenodd" clip-rule="evenodd" d="M36.1235 1L18.2469 31.963H54L36.1235 1ZM36.1235 6.1605L22.7161 29.3828H49.5308L36.1235 6.1605Z" fill="#3C64B1"/>
<path d="M63.8 24H66.536V7.32H63.8V24ZM79.5121 24H82.2241V16.2C82.2241 12.504 79.8961 10.56 76.8001 10.56C75.2161 10.56 73.7521 11.208 72.8641 12.288V10.776H70.1281V24H72.8641V16.608C72.8641 14.184 74.1841 12.936 76.2001 12.936C78.1921 12.936 79.5121 14.184 79.5121 16.608V24ZM86.0501 24H88.8101V13.008H91.2581V10.776H88.8101V9.84C88.8101 8.328 89.3861 7.752 91.0661 7.752V5.472C87.6101 5.472 86.0501 6.792 86.0501 9.84V10.776H84.4901V13.008H86.0501V24ZM93.6828 24H96.4188V6.24H93.6828V24ZM111.987 10.776H109.251V18.144C109.251 20.568 107.931 21.816 105.915 21.816C103.923 21.816 102.603 20.568 102.603 18.144V10.776H99.8909V18.552C99.8909 22.248 102.243 24.192 105.339 24.192C106.899 24.192 108.387 23.544 109.251 22.416V24H111.987V10.776ZM115.597 24H118.333V10.776H115.597V24ZM116.989 9.024C117.949 9.024 118.717 8.256 118.717 7.272C118.717 6.288 117.949 5.52 116.989 5.52C116.005 5.52 115.237 6.288 115.237 7.272C115.237 8.256 116.005 9.024 116.989 9.024ZM122.357 20.328C122.357 23.016 123.821 24 126.173 24H128.333V21.72H126.653C125.501 21.72 125.117 21.312 125.117 20.328V13.008H128.333V10.776H125.117V7.488H122.357V10.776H120.797V13.008H122.357V20.328ZM130.855 24H133.591V10.776H130.855V24ZM132.247 9.024C133.207 9.024 133.975 8.256 133.975 7.272C133.975 6.288 133.207 5.52 132.247 5.52C131.263 5.52 130.495 6.288 130.495 7.272C130.495 8.256 131.263 9.024 132.247 9.024ZM135.623 10.776L140.639 24H143.903L148.943 10.776H146.039L142.295 21.552L138.551 10.776H135.623ZM156.579 12.864C158.619 12.864 160.227 14.16 160.275 16.2H152.955C153.243 14.112 154.731 12.864 156.579 12.864ZM162.771 20.064H159.819C159.315 21.096 158.379 21.912 156.699 21.912C154.683 21.912 153.123 20.592 152.931 18.408H163.035C163.107 17.952 163.131 17.52 163.131 17.064C163.131 13.176 160.467 10.56 156.699 10.56C152.787 10.56 150.099 13.224 150.099 17.376C150.099 21.528 152.907 24.216 156.699 24.216C159.939 24.216 162.027 22.368 162.771 20.064Z" fill="#454D66"/>
</svg>
