<svg width="16" height="24" viewBox="0 0 16 24" fill="none" xmlns="http://www.w3.org/2000/svg">
<path d="M8.63663 18.6426V23.3516C8.63663 23.709 8.35091 24 8 24C7.64909 24 7.36338 23.709 7.36338 23.3516V18.6426C5.41515 18.4844 3.65868 17.6074 2.35091 16.2754C0.899329 14.7988 0 12.7617 0 10.5215C0 10.1641 0.285714 9.87305 0.636625 9.87305C0.987536 9.87305 1.27325 10.1641 1.27325 10.5215C1.27325 12.4043 2.03068 14.1172 3.25024 15.3594C4.4698 16.6016 6.15149 17.373 8 17.373C9.84851 17.373 11.5302 16.6016 12.7498 15.3594C13.9693 14.1172 14.7268 12.4043 14.7268 10.5215C14.7268 10.1641 15.0125 9.87305 15.3634 9.87305C15.7143 9.87305 16 10.1641 16 10.5215C16 12.7637 15.1007 14.8008 13.651 16.2773C12.3413 17.6094 10.5849 18.4844 8.63663 18.6426ZM8.04219 0C9.26558 0 10.3778 0.509766 11.1831 1.33008C11.9885 2.15039 12.489 3.2832 12.489 4.5293V10.3887C12.489 11.6348 11.9885 12.7676 11.1831 13.5879C10.3778 14.4082 9.26558 14.918 8.04219 14.918C6.81879 14.918 5.70662 14.4082 4.90125 13.5879C4.09588 12.7676 3.5954 11.6348 3.5954 10.3887V4.5293C3.5954 3.2832 4.09588 2.15039 4.90125 1.33008C5.70662 0.509766 6.81879 0 8.04219 0ZM10.2819 2.24805C9.70662 1.66211 8.91275 1.29883 8.04219 1.29883C7.1697 1.29883 6.37776 1.66211 5.80249 2.24805C5.22723 2.83398 4.87057 3.64258 4.87057 4.5293V10.3887C4.87057 11.2773 5.22723 12.084 5.80249 12.6699C6.37776 13.2559 7.17162 13.6191 8.04219 13.6191C8.91467 13.6191 9.70662 13.2559 10.2819 12.6699C10.8571 12.084 11.2138 11.2754 11.2138 10.3887V4.5293C11.2157 3.64062 10.8571 2.83398 10.2819 2.24805Z" fill="#246BFD"/>
</svg>
