<svg width="25" height="20" viewBox="0 0 25 20" fill="none" xmlns="http://www.w3.org/2000/svg">
<path fill-rule="evenodd" clip-rule="evenodd" d="M17.627 8.90141C18.2841 8.90141 18.868 9.20993 19.2322 9.68457C19.5964 9.20795 20.1803 8.90141 20.8374 8.90141C21.9421 8.90141 22.8373 9.77158 22.8373 10.8454C22.8373 11.9193 21.9421 12.7895 20.8374 12.7895C20.1803 12.7895 19.5964 12.481 19.2322 12.0063C18.868 12.4829 18.2841 12.7895 17.627 12.7895C16.5222 12.7895 15.627 11.9193 15.627 10.8454C15.627 9.77158 16.5222 8.90141 17.627 8.90141ZM7.97119 7.30347C10.1868 8.66805 12.1887 9.31474 13.9058 9.16247C14.0157 11.326 13.7838 13.1652 13.2507 14.6959H23.6267C23.7854 14.6959 23.9299 14.6327 24.0356 14.5298C24.1414 14.427 24.2065 14.2866 24.2065 14.1323V6.72204H0.795492V14.1323C0.795492 14.2866 0.860596 14.427 0.96639 14.5298C1.07218 14.6327 1.21663 14.6959 1.37533 14.6959H2.7771C2.2522 13.1652 1.99992 11.3043 2.05892 9.07149C4.07511 9.17631 6.05469 8.75111 7.97119 7.30347ZM12.9456 15.4692C11.9568 17.6861 10.2559 19.1714 7.99357 20C5.77189 19.2109 4.07715 17.7593 3.07617 15.4692H1.37533C0.996908 15.4692 0.653076 15.3189 0.404867 15.0776C0.154622 14.8363 0 14.5021 0 14.1343V1.33689C0 0.96905 0.154622 0.634826 0.402832 0.391575C0.653076 0.150302 0.996908 0 1.37533 0H23.6267C24.0051 0 24.349 0.150302 24.5972 0.391575C24.8454 0.632849 25 0.96905 25 1.33492V14.1303C25 14.4982 24.8454 14.8324 24.5972 15.0737C24.349 15.3149 24.0051 15.4672 23.6267 15.4672H12.9456V15.4692ZM7.97526 8.48611C9.81649 9.62128 11.4807 10.1572 12.9069 10.0307C13.0046 11.9371 12.7808 13.5232 12.2782 14.8225L12.264 14.8581C12.2477 14.8977 12.2335 14.9372 12.2172 14.9748L12.1989 15.0183C12.1847 15.0539 12.1684 15.0895 12.1541 15.1251L12.1358 15.1666C12.1195 15.2022 12.1033 15.2378 12.087 15.2734L12.0646 15.3229C12.0504 15.3525 12.0361 15.3822 12.0219 15.4118L11.9914 15.4712C11.1552 17.1482 9.78597 18.2715 7.99154 18.9281C6.22559 18.3012 4.86043 17.2056 4.01611 15.4712L4.01001 15.4593L4.00798 15.4455L4.00187 15.4336C3.98763 15.402 3.97339 15.3723 3.95915 15.3407L3.95304 15.3288L3.94694 15.3169L3.94084 15.3051L3.93473 15.2932L3.92863 15.2813C3.91439 15.2497 3.90015 15.218 3.88591 15.1864L3.8798 15.1745L3.8737 15.1627L3.86759 15.1508C3.84725 15.1033 3.8269 15.0539 3.80656 15.0064L3.80249 14.9946L3.79842 14.9827C3.78418 14.9451 3.7679 14.9095 3.75366 14.8719L3.74959 14.8601L3.74552 14.8482L3.74146 14.8363L3.73739 14.8245C3.72314 14.7869 3.7089 14.7493 3.69466 14.7118L3.69059 14.6999C3.23079 13.4263 3.007 11.862 3.05786 9.95748C4.73836 10.0405 6.38224 9.68852 7.97526 8.48611ZM0.795492 2.87946H24.2045V1.33689C24.2045 1.18264 24.1394 1.04222 24.0336 0.939385C23.9278 0.836547 23.7834 0.773262 23.6247 0.773262H1.37533C1.21663 0.773262 1.07218 0.836547 0.96639 0.939385C0.860596 1.04222 0.795492 1.18264 0.795492 1.33689V2.87946Z" fill="#246BFD"/>
<path d="M5.00895 13.3177L6.06079 13.3038L6.14014 13.3236C6.35173 13.4423 6.55314 13.5787 6.74032 13.733C6.87459 13.8437 7.0048 13.9644 7.12687 14.0969C7.50529 13.5055 7.90609 12.9637 8.3313 12.4653C8.7972 11.9195 9.29159 11.4231 9.81038 10.9702L9.91211 10.9326H11.0616L10.8297 11.1818C10.1176 11.9511 9.47266 12.7441 8.88875 13.5649C8.30485 14.3856 7.78402 15.232 7.32015 16.1022L7.1757 16.3731L7.04346 16.0982C6.79932 15.588 6.50635 15.1193 6.15641 14.7C5.80648 14.2808 5.39958 13.909 4.92554 13.5926L5.00895 13.3177Z" fill="#246BFD"/>
</svg>
