<svg width="47" height="41" viewBox="0 0 47 41" fill="none" xmlns="http://www.w3.org/2000/svg">
<g clip-path="url(#clip0_43_451)">
<path d="M43.875 25.0324H40.0272V21.3534H43.8521C43.4242 16.9389 41.5424 12.7869 38.4973 9.53885L36.4204 11.5983L33.8118 8.99269L35.751 7.06975C32.5681 4.6997 28.7542 3.30719 24.7813 3.06457V5.75365H21.075V3.16697C17.1276 3.63453 13.4046 5.23781 10.3653 7.779L12.4002 9.79676L9.78013 12.3948L7.75678 10.3884C5.15336 13.5018 3.55418 17.3196 3.16693 21.3458H6.50222V25.0324H3.12486C3.46594 29.0585 5.01829 32.8903 7.58083 36.0314L10.4074 33.2286L13.0274 35.8266L10.1588 38.6712L10.197 38.7016L8.21959 40.9772C4.59662 37.8986 2.00397 33.7998 0.786017 29.2254C-0.431935 24.6509 -0.217537 19.8172 1.40073 15.3665C3.019 10.9157 5.96454 7.05844 9.84609 4.30713C13.7276 1.55581 18.3615 0.0406374 23.1321 -0.037132C27.9027 -0.114901 32.5843 1.24842 36.5549 3.87173C40.5256 6.49504 43.5974 10.2542 45.3623 14.6498C47.1272 19.0454 47.5018 23.8695 46.4361 28.4812C45.3704 33.0929 42.9151 37.274 39.3961 40.469L38.0536 39.024L34.8063 35.8304L37.4263 33.2324L39.7786 35.5801C40.756 34.3059 41.5789 32.9222 42.2303 31.4574C43.135 29.4133 43.6908 27.2344 43.875 25.0096V25.0324ZM23.4999 15.5504C23.9637 15.5494 24.4263 15.5952 24.8807 15.687L20.5777 18.8994C20.5246 18.937 20.4747 18.9789 20.4286 19.0246C18.7801 20.3976 18.4014 22.1309 18.8107 23.6366C19.0209 24.4034 19.4327 25.101 20.004 25.6582C20.581 26.2192 21.3019 26.6128 22.0886 26.796C23.6721 27.1753 25.5309 26.6898 27.0609 24.7517C27.0987 24.7062 27.1332 24.658 27.1642 24.6076L30.1476 20.5417C30.5235 21.9151 30.4584 23.3706 29.9614 24.7056C29.4644 26.0407 28.5602 27.1889 27.3745 27.9907C26.4834 28.5896 25.4631 28.973 24.3956 29.11C23.328 29.247 22.2429 29.1339 21.2274 28.7797C20.2119 28.4255 19.2943 27.8401 18.5483 27.0706C17.8023 26.301 17.2487 25.3687 16.9319 24.3485C16.6151 23.3283 16.544 22.2486 16.7243 21.1963C16.9045 20.1439 17.3311 19.1481 17.9699 18.2888C18.6086 17.4296 19.4416 16.7308 20.402 16.2486C21.3624 15.7664 22.4235 15.5143 23.4999 15.5125V15.5504Z" fill="#246BFD"/>
<path fill-rule="evenodd" clip-rule="evenodd" d="M32.7485 11.6477L21.4958 20.1018C17.8774 22.9768 22.5667 27.9756 25.8638 23.8339L33.9916 12.7628L32.7485 11.6477Z" fill="#246BFD"/>
</g>
<defs>
<clipPath id="clip0_43_451">
<rect width="47" height="41" fill="white"/>
</clipPath>
</defs>
</svg>
