<svg width="26" height="26" viewBox="0 0 26 26" fill="none" xmlns="http://www.w3.org/2000/svg">
<path d="M7.16011 10.6857C8.03397 12.2699 9.04113 13.7903 10.3487 15.1768C11.6606 16.5717 13.2919 17.8412 15.4036 18.9257C15.5602 19.0022 15.7083 19.0022 15.8416 18.9491C16.0426 18.8725 16.2478 18.7045 16.4488 18.5025C16.6054 18.3452 16.8001 18.0943 17.0032 17.8199C17.8157 16.7461 18.8208 15.4128 20.2405 16.0805C20.2722 16.0954 20.2955 16.1124 20.3273 16.1252L25.0626 18.8619C25.0774 18.8704 25.0944 18.8853 25.107 18.8938C25.7312 19.3255 25.9894 19.991 25.9957 20.7459C25.9957 21.5136 25.7143 22.3769 25.3017 23.1063C24.7558 24.0696 23.9518 24.7075 23.025 25.1285C22.1427 25.5368 21.1609 25.7558 20.2172 25.8962C18.7361 26.1152 17.3481 25.9748 15.9283 25.5368C14.5403 25.1051 13.1417 24.3928 11.614 23.4444L11.5019 23.3721C10.8015 22.9319 10.0441 22.462 9.30138 21.907C6.58459 19.8443 3.81489 16.8652 2.01004 13.5862C0.497183 10.8346 -0.328013 7.86395 0.122671 5.03366C0.372345 3.48135 1.03462 2.0694 2.18989 1.13802C3.19705 0.321462 4.55334 -0.125091 6.30952 0.0322655C6.51053 0.0471506 6.69038 0.164105 6.78559 0.338473L9.82189 5.49722C10.2662 6.07561 10.3212 6.64975 10.0779 7.22389C9.8769 7.69383 9.47065 8.12763 8.91629 8.53165C8.75337 8.672 8.55871 8.81447 8.35347 8.96332C7.67427 9.45878 6.90197 10.0308 7.16645 10.7027L7.16011 10.6857Z" fill="#44C2FD"/>
</svg>
