<svg width="41" height="46" viewBox="0 0 41 46" fill="none" xmlns="http://www.w3.org/2000/svg">
<path fill-rule="evenodd" clip-rule="evenodd" d="M20.4301 0C28.0738 4.85549 34.981 7.15334 40.9076 6.60944C41.3742 16.0741 40.0562 23.7902 37.2122 29.8845C36.4825 29.2853 35.6737 28.7898 34.8088 28.412C37.1064 23.3084 38.1632 16.8913 37.7766 9.05922C32.7588 9.5186 26.912 7.57407 20.4399 3.46295C14.8408 7.82219 9.06131 9.09877 3.17059 8.78952C2.90952 18.7594 4.65808 26.2652 8.03497 31.7257C10.5318 29.6337 14.7843 29.9502 16.7975 27.1758C16.9419 26.961 17.0092 26.8459 17.0083 26.7506C17.0065 26.7021 14.8228 24.0186 14.6273 23.7057C14.1123 22.8858 13.1488 21.7729 13.1488 20.8118C13.1488 20.2697 13.5758 19.5622 14.1868 19.4049C14.1392 18.5922 14.1069 17.7678 14.1069 16.9515C14.1069 16.4688 14.1168 15.9806 14.1338 15.5023C14.1607 15.1994 14.2164 15.0654 14.2962 14.7733C14.6728 13.5457 15.4923 12.5028 16.5947 11.8479C16.985 11.6007 17.4093 11.4092 17.8436 11.2519C18.6322 10.9633 18.25 9.71459 19.1157 9.69571C21.1379 9.64357 24.4655 11.4155 25.7619 12.8224C26.5881 13.7385 27.0591 14.7562 27.0879 15.9896L27.0053 19.5397C27.3642 19.6279 27.767 19.9101 27.8549 20.2697C28.1321 21.3908 26.9712 22.786 26.432 23.676C25.935 24.4986 24.0339 26.7434 24.0321 26.7614C24.0232 26.8585 24.0725 26.979 24.2026 27.1758C24.6924 27.8492 25.3133 28.3401 26.0086 28.7284C25.0878 29.2119 24.2454 29.8324 23.51 30.5687C21.6601 32.4224 20.5153 34.9855 20.5153 37.8155C20.5153 40.2329 21.355 42.457 22.7573 44.211C22.027 44.5472 21.2779 44.8619 20.509 45.1513C7.27687 40.3111 -0.549911 28.4542 0.0305483 6.2912C6.98799 6.65709 13.8153 5.14947 20.4301 0Z" fill="#246BFD"/>
<path fill-rule="evenodd" clip-rule="evenodd" d="M30.7428 29.6311C35.2528 29.6311 38.9096 33.2954 38.9096 37.8156C38.9096 42.3358 35.2528 46.0001 30.7428 46.0001C26.2319 46.0001 22.5751 42.3358 22.5751 37.8156C22.5751 33.2954 26.2319 29.6311 30.7428 29.6311ZM28.7421 38.1096C28.9906 38.3208 29.2249 38.5482 29.4437 38.7901C30.13 37.6834 30.8621 36.6667 31.6354 35.7317C33.8209 33.0869 32.8305 33.5966 35.8619 33.5966L35.4403 34.0659C34.1466 35.507 33.7097 36.2567 32.6483 37.7931C31.5974 39.3168 30.6442 40.9058 29.7945 42.5506L29.5325 43.0586L29.2903 42.5407C28.8462 41.5833 28.3124 40.705 27.6763 39.9193C27.0411 39.1344 26.4849 38.622 25.6227 38.0287C26.0184 36.7287 27.8988 37.394 28.7421 38.1096Z" fill="#246BFD"/>
</svg>
