<svg width="38" height="44" viewBox="0 0 38 44" fill="none" xmlns="http://www.w3.org/2000/svg">
<path d="M36.3333 7.86667C33.312 7.06028 30.3602 6.01247 27.5067 4.73333C24.6993 3.51549 21.9891 2.08465 19.4 0.453333L18.6667 0L17.9467 0.466667C15.3575 2.09798 12.6474 3.52882 9.84 4.74667C6.98172 6.02192 4.02553 7.06529 1 7.86667L0 8.12V19.24C0 37.0933 18.04 43.7733 18.2133 43.84L18.6667 44L19.12 43.84C19.3067 43.84 37.3333 37.1067 37.3333 19.24V8.12L36.3333 7.86667ZM30.24 16.7333L15.3467 31.2L6.92 22.76C6.56638 22.4064 6.36772 21.9268 6.36772 21.4267C6.36772 20.9266 6.56638 20.447 6.92 20.0933C7.27362 19.7397 7.75324 19.541 8.25333 19.541C8.75343 19.541 9.23304 19.7397 9.58667 20.0933L15.3867 26L27.64 14C27.8151 13.8249 28.023 13.686 28.2517 13.5912C28.4805 13.4965 28.7257 13.4477 28.9733 13.4477C29.221 13.4477 29.4662 13.4965 29.6949 13.5912C29.9237 13.686 30.1316 13.8249 30.3067 14C30.4818 14.1751 30.6207 14.383 30.7154 14.6117C30.8102 14.8405 30.859 15.0857 30.859 15.3333C30.859 15.581 30.8102 15.8262 30.7154 16.0549C30.6207 16.2837 30.4818 16.4916 30.3067 16.6667L30.24 16.7333Z" fill="#5F59F7"/>
</svg>
