<svg width="27" height="39" viewBox="0 0 27 39" fill="none" xmlns="http://www.w3.org/2000/svg">
<path d="M24.3396 11.6399C23.7319 10.705 23.0307 9.86353 22.236 9.16233V4.48767C22.236 2.0101 20.2259 0 17.7483 0H8.67946C6.20189 0 4.19179 2.0101 4.19179 4.48767V9.20908C-1.13732 14.1642 -1.41781 22.5319 3.53733 27.861C3.77107 28.0947 3.95805 28.3284 4.19179 28.5154V33.7043C4.19179 36.1819 6.20189 38.192 8.67946 38.192H17.795C20.2726 38.192 22.2827 36.1819 22.2827 33.7043V28.4219C26.9106 24.0745 27.7521 17.0158 24.3396 11.6399ZM5.78117 4.44093C5.78117 2.85154 7.04333 1.58939 8.63271 1.58939H17.7483C19.3377 1.58939 20.5998 2.85154 20.5998 4.44093V7.80668C18.543 6.40428 15.8784 5.56285 13.1671 5.56285C10.3623 5.65634 8.21199 6.17055 5.78117 7.80668V4.44093ZM3.44384 25.0562C2.22843 23.1396 1.62072 20.9425 1.62072 18.7921C1.62072 12.4346 6.76285 7.19898 13.1671 7.19898C16.1589 7.19898 19.0572 8.41439 20.8803 10.0973C23.4514 12.3878 24.807 15.5666 24.807 18.7921C24.807 25.1029 19.7117 30.3385 13.2139 30.3853C9.24042 30.3853 5.54744 28.3752 3.44384 25.0562ZM20.5998 33.6108C20.5998 35.2002 19.3377 36.4623 17.7483 36.4623H8.63271C7.04333 36.4623 5.78117 35.2002 5.78117 33.6108V29.7308C7.83802 31.1332 10.4558 31.9747 13.2139 31.9747C15.8317 31.9747 18.4962 31.1332 20.5998 29.7308V33.6108Z" fill="#246BFD"/>
<path d="M13.214 10.1908C13.6815 10.1908 14.0554 9.81682 14.0554 9.34936V8.32093C14.0554 7.85346 13.6815 7.47949 13.214 7.47949C12.7465 7.47949 12.3726 7.85346 12.3726 8.32093V9.34936C12.3726 9.86357 12.7465 10.1908 13.214 10.1908Z" fill="#246BFD"/>
<path d="M13.214 27.3467C12.7465 27.3467 12.3726 27.7207 12.3726 28.1881V29.2165C12.3726 29.684 12.7465 30.058 13.214 30.058C13.6815 30.058 14.0554 29.684 14.0554 29.2165V28.1881C14.0087 27.7207 13.6347 27.3467 13.214 27.3467Z" fill="#246BFD"/>
<path d="M22.61 19.5869H23.6384C24.1059 19.5869 24.4799 19.213 24.4799 18.7455C24.4799 18.278 24.1059 17.9041 23.6384 17.9041H22.61C22.1425 17.9041 21.7686 18.278 21.7686 18.7455C21.7686 19.213 22.1425 19.5869 22.61 19.5869Z" fill="#246BFD"/>
<path d="M3.81774 17.9507H2.78931C2.32185 17.9507 1.94788 18.3247 1.94788 18.7921C1.94788 19.2596 2.32185 19.6336 2.78931 19.6336H3.81774C4.28521 19.6336 4.65918 19.2596 4.65918 18.7921C4.65918 18.3247 4.28521 17.9507 3.81774 17.9507Z" fill="#246BFD"/>
<path d="M6.5757 14.585L11.5308 18.5117C11.5308 18.6052 11.4841 18.6987 11.4841 18.7922C11.4841 18.8857 11.4841 18.9792 11.5308 19.0727L10.9231 19.5401C10.5492 19.8206 10.5024 20.3348 10.7361 20.6621C10.9699 20.9893 11.5308 21.0828 11.8581 20.8491C11.9048 20.8023 12.4658 20.3816 12.5125 20.3348C12.9332 20.5218 13.4475 20.5218 13.8682 20.3348L14.4759 20.8023C14.8498 21.0828 15.3641 21.036 15.6445 20.6621C15.925 20.2881 15.8783 19.7739 15.5043 19.4934L14.8966 19.0259C14.8966 18.9324 14.9433 18.8389 14.9433 18.7455C14.9433 18.652 14.9433 18.5585 14.8966 18.4182L21.1139 13.4631C21.4879 13.1826 21.5346 12.6684 21.2541 12.2944C20.9737 11.9205 20.4594 11.8737 20.0855 12.1542L13.8682 17.2028C13.4475 17.0158 12.9332 17.0158 12.5125 17.2028L7.55738 13.2761C7.18341 12.9956 6.6692 13.0891 6.38872 13.4163C6.15498 13.7903 6.20173 14.3045 6.5757 14.585Z" fill="#246BFD"/>
</svg>
