<svg width="43" height="43" viewBox="0 0 43 43" fill="none" xmlns="http://www.w3.org/2000/svg">
<path d="M35.9222 6.22403C33.9756 4.25825 31.6599 2.69644 29.1079 1.62833C26.556 0.560225 23.8181 0.00687253 21.0517 6.36118e-05C18.2852 -0.00674531 15.5447 0.533123 12.9875 1.58865C10.4304 2.64419 8.10694 4.19458 6.15076 6.15076C4.19458 8.10694 2.64419 10.4304 1.58865 12.9875C0.533123 15.5447 -0.00674531 18.2852 6.36118e-05 21.0517C0.00687253 23.8181 0.560225 26.556 1.62833 29.1079C2.69644 31.6599 4.25825 33.9756 6.22403 35.9222C8.17056 37.8879 10.4863 39.4498 13.0383 40.5179C15.5902 41.586 18.3281 42.1393 21.0945 42.1461C23.861 42.1529 26.6015 41.6131 29.1587 40.5575C31.7158 39.502 34.0392 37.9516 35.9954 35.9954C37.9516 34.0392 39.502 31.7158 40.5575 29.1587C41.6131 26.6015 42.1529 23.861 42.1461 21.0945C42.1393 18.3281 41.586 15.5902 40.5179 13.0383C39.4498 10.4863 37.8879 8.17056 35.9222 6.22403ZM27.8231 16.5731C28.2681 16.5731 28.7031 16.7051 29.0731 16.9523C29.4431 17.1995 29.7315 17.5509 29.9018 17.9621C30.0721 18.3732 30.1167 18.8256 30.0299 19.262C29.943 19.6985 29.7288 20.0994 29.4141 20.4141C29.0994 20.7288 28.6985 20.943 28.262 21.0299C27.8256 21.1167 27.3732 21.0721 26.9621 20.9018C26.5509 20.7315 26.1995 20.4431 25.9523 20.0731C25.7051 19.7031 25.5731 19.2681 25.5731 18.8231C25.5724 18.5274 25.63 18.2345 25.7429 17.9612C25.8557 17.6879 26.0214 17.4395 26.2304 17.2304C26.4395 17.0214 26.6879 16.8557 26.9612 16.7429C27.2345 16.63 27.5274 16.5724 27.8231 16.5731ZM14.3231 16.5731C14.7681 16.5731 15.2031 16.7051 15.5731 16.9523C15.9431 17.1995 16.2315 17.5509 16.4018 17.9621C16.5721 18.3732 16.6167 18.8256 16.5299 19.262C16.443 19.6985 16.2288 20.0994 15.9141 20.4141C15.5994 20.7288 15.1985 20.943 14.762 21.0299C14.3256 21.1167 13.8732 21.0721 13.4621 20.9018C13.0509 20.7315 12.6995 20.4431 12.4523 20.0731C12.2051 19.7031 12.0731 19.2681 12.0731 18.8231C12.0724 18.5274 12.13 18.2345 12.2429 17.9612C12.3557 17.6879 12.5214 17.4395 12.7304 17.2304C12.9395 17.0214 13.1879 16.8557 13.4612 16.7429C13.7345 16.63 14.0274 16.5724 14.3231 16.5731ZM21.0778 33.0731C16.8197 33.0731 13.2262 30.3084 12.104 26.5265C12.0065 26.1965 11.8856 25.5731 11.8856 25.5731H30.2606C30.2606 25.5731 30.1378 26.2003 30.0422 26.5265C28.9378 30.3103 25.3359 33.0731 21.0778 33.0731Z" fill="#56D042"/>
</svg>
