<svg width="25" height="18" viewBox="0 0 25 18" fill="none" xmlns="http://www.w3.org/2000/svg">
<g clip-path="url(#clip0_43_484)">
<path d="M12.4105 8.99596C12.4027 9.05755 12.3827 9.11699 12.3516 9.17081C12.3205 9.22463 12.2789 9.27175 12.2293 9.30942C12.1797 9.34708 12.123 9.37454 12.0626 9.39018C12.0022 9.40583 11.9392 9.40935 11.8774 9.40054C11.8157 9.39232 11.7562 9.37209 11.7024 9.34101C11.6485 9.30992 11.6013 9.26859 11.5635 9.21937C11.5258 9.17015 11.4981 9.114 11.4821 9.05415C11.4662 8.9943 11.4622 8.9319 11.4705 8.87053C11.607 7.84312 11.915 6.84557 12.382 5.91908C13.2717 4.15963 14.8239 2.8205 16.7013 2.19285C17.6894 1.86004 18.726 1.69123 19.7693 1.69319H19.8039C19.9211 1.69614 20.0332 1.74145 20.1192 1.82063C20.2038 1.90401 20.2539 2.01589 20.2596 2.13419C20.2616 2.14692 20.2616 2.15989 20.2596 2.17262C20.2552 2.29041 20.2066 2.40228 20.1233 2.48618C20.0346 2.57421 19.9149 2.6243 19.7896 2.62576C18.8495 2.62385 17.9154 2.77557 17.0247 3.07485C16.2055 3.34599 15.4481 3.77521 14.7959 4.33791C14.1438 4.90061 13.6097 5.58573 13.2243 6.35401C12.8068 7.18339 12.5317 8.07636 12.4105 8.99596ZM9.43197 18.004C8.18888 18.004 8.12988 15.526 9.43197 15.526H24.821C24.8613 15.5265 24.8998 15.5426 24.9283 15.571C24.9568 15.5993 24.973 15.6376 24.9736 15.6777V17.8483C24.9731 17.8887 24.9569 17.9275 24.9286 17.9565C24.9002 17.9855 24.8616 18.0025 24.821 18.004H9.43197ZM0 17.9838V10.1733C0.000555302 9.75999 0.0996841 9.3527 0.289249 8.98487C0.478814 8.61704 0.75341 8.29916 1.09049 8.05732C1.99788 7.40391 4.52881 7.34525 5.49113 7.89953C6.50838 8.48618 6.50838 9.72016 7.39339 10.5779C8.57544 11.7269 8.2784 11.8584 9.89176 11.8584H13.1185C15.9973 11.8584 14.445 14.6419 12.7462 14.5651H9.80835C8.3842 14.5651 8.26823 14.7916 7.09229 14.0148L7.02922 17.9838H0ZM15.8997 14.5651C15.7976 14.5703 15.6956 14.5549 15.5998 14.5197C15.504 14.4846 15.4164 14.4304 15.3423 14.3604C15.2682 14.2905 15.2092 14.2063 15.1689 14.113C15.1286 14.0197 15.1078 13.9192 15.1078 13.8176C15.1078 13.716 15.1286 13.6155 15.1689 13.5222C15.2092 13.4289 15.2682 13.3447 15.3423 13.2748C15.4164 13.2048 15.504 13.1506 15.5998 13.1155C15.6956 13.0803 15.7976 13.0648 15.8997 13.0701H20.9859L23.5758 7.82873C23.6199 7.74079 23.681 7.66236 23.7556 7.59789C23.8301 7.53343 23.9168 7.4842 24.0105 7.45302C24.1042 7.42184 24.2031 7.40931 24.3017 7.41616C24.4003 7.423 24.4965 7.44909 24.585 7.49292C24.6734 7.53675 24.7523 7.59748 24.8171 7.67162C24.882 7.74577 24.9315 7.83189 24.9628 7.92506C24.9942 8.01823 25.0068 8.11663 24.9999 8.21464C24.993 8.31266 24.9668 8.40836 24.9227 8.49629L22.1558 14.0897C22.1004 14.2303 22.0035 14.3509 21.8778 14.4358C21.7522 14.5206 21.6037 14.5657 21.4518 14.5651H15.8997ZM5.22258 5.73119e-07C5.93261 0.000800572 6.62648 0.210884 7.21646 0.603698C7.80645 0.996512 8.26607 1.55442 8.53723 2.20691C8.8084 2.8594 8.87893 3.57717 8.73991 4.26951C8.6009 4.96184 8.25858 5.59766 7.75622 6.09659C7.25386 6.59553 6.61402 6.93518 5.91756 7.07262C5.22111 7.21006 4.4993 7.13912 3.84339 6.86876C3.18747 6.5984 2.62689 6.14076 2.2325 5.55369C1.83811 4.96662 1.6276 4.27646 1.6276 3.57047C1.62787 3.10132 1.72107 2.63682 1.90188 2.20349C2.08269 1.77016 2.34757 1.37648 2.68139 1.04493C3.01521 0.713379 3.41145 0.450455 3.84746 0.271166C4.28348 0.0918769 4.75074 -0.000265157 5.22258 5.73119e-07ZM18.5811 8.59744C18.7605 8.43868 18.9898 8.34671 19.2298 8.33724C19.4698 8.32776 19.7056 8.40135 19.8971 8.54546C20.0886 8.68957 20.2239 8.89528 20.2799 9.12749C20.336 9.35971 20.3092 9.60406 20.2043 9.81887C20.0993 10.0337 19.9227 10.2056 19.7045 10.3054C19.4863 10.4052 19.2401 10.4266 19.0078 10.3661C18.7754 10.3055 18.5715 10.1667 18.4306 9.97325C18.2897 9.77984 18.2207 9.54383 18.2353 9.30546C18.2432 9.17061 18.2778 9.03865 18.3372 8.91715C18.3965 8.79564 18.4794 8.68699 18.5811 8.59744ZM16.8722 9.35401C16.8521 9.47379 16.7863 9.58124 16.6885 9.65398C16.5907 9.72671 16.4685 9.75912 16.3472 9.74444H16.3086C16.1931 9.71994 16.0908 9.6536 16.0217 9.55833C15.9526 9.46228 15.9228 9.34367 15.9383 9.22657C15.9372 9.21513 15.9372 9.20362 15.9383 9.19218C16.0082 8.75319 16.1454 8.32746 16.3452 7.92987C16.5361 7.55683 16.7948 7.22213 17.1082 6.94268C17.4222 6.6673 17.7851 6.45257 18.1783 6.30951C18.6003 6.15753 19.044 6.07353 19.4926 6.06069C19.5546 6.05803 19.6165 6.06757 19.6748 6.08874C19.7331 6.10992 19.7867 6.14232 19.8324 6.18409C19.9241 6.26862 19.9789 6.38555 19.9849 6.50978C19.9881 6.57148 19.9787 6.63318 19.9574 6.69122C19.9361 6.74925 19.9032 6.80243 19.8608 6.84761C19.7756 6.93827 19.658 6.99203 19.5333 6.9973C19.1863 7.00569 18.8429 7.0692 18.516 7.18544C18.2265 7.28707 17.9592 7.44295 17.7287 7.64464C17.4991 7.85047 17.3106 8.09755 17.1733 8.37289C17.0181 8.68332 16.9118 9.01557 16.8579 9.35806L16.8722 9.35401ZM14.74 9.20836C14.741 9.21845 14.741 9.22861 14.74 9.23871C14.7209 9.35606 14.6573 9.46169 14.5624 9.53392C14.4674 9.60614 14.3482 9.63949 14.2293 9.62711H14.1968C14.0753 9.6081 13.9661 9.54271 13.8924 9.44486C13.8187 9.347 13.7863 9.22441 13.8021 9.10317C13.8836 8.33876 14.0897 7.59265 14.4124 6.89413C14.7041 6.2694 15.1276 5.71443 15.6542 5.26694C16.1808 4.81944 16.7981 4.48991 17.4642 4.30074C18.209 4.08938 18.9833 3.9992 19.7571 4.03372H19.7734C19.8928 4.04203 20.0046 4.09476 20.0867 4.18139C20.1293 4.22619 20.1625 4.27893 20.1845 4.33656C20.2065 4.39419 20.2168 4.45558 20.2148 4.5172V4.53338C20.2075 4.65411 20.1534 4.76731 20.0638 4.84917C19.9743 4.93104 19.8563 4.97519 19.7347 4.97235C19.0705 4.94169 18.4056 5.01681 17.7653 5.19488C17.2156 5.34399 16.7058 5.61209 16.2725 5.98C15.8392 6.3479 15.493 6.80651 15.2588 7.32299C14.9855 7.92008 14.8091 8.55641 14.7359 9.20836H14.74Z" fill="#246BFD"/>
</g>
<defs>
<clipPath id="clip0_43_484">
<rect width="25" height="18" fill="white"/>
</clipPath>
</defs>
</svg>
