<svg width="18" height="23" viewBox="0 0 18 23" fill="none" xmlns="http://www.w3.org/2000/svg">
<g clip-path="url(#clip0_43_470)">
<path d="M6.956 0.935872V1.87174C6.9556 1.98879 6.91158 2.10151 6.83249 2.18799C6.7534 2.27447 6.64489 2.32853 6.52805 2.33968C6.4741 2.35716 6.41772 2.36601 6.361 2.36589H4.61731V4.30501H13.3808V2.37337H11.6371C11.5804 2.37365 11.524 2.36481 11.4701 2.34717C11.3523 2.33547 11.2432 2.28014 11.1643 2.19212C11.0854 2.1041 11.0425 1.98978 11.044 1.87174V0.935872H6.956ZM3.4536 9.21834C3.42266 9.17238 3.40111 9.12079 3.39017 9.06652C3.37923 9.01225 3.37912 8.95636 3.38984 8.90204C3.40055 8.84773 3.4219 8.79605 3.45264 8.74996C3.48339 8.70387 3.52294 8.66427 3.56903 8.63342C3.61512 8.60258 3.66686 8.58108 3.72128 8.57017C3.7757 8.55926 3.83175 8.55915 3.88621 8.56984C3.94068 8.58053 3.9925 8.60181 4.03872 8.63247C4.08494 8.66313 4.12464 8.70257 4.15558 8.74854L4.38644 9.08919L5.30052 7.98112C5.37171 7.89474 5.47439 7.8401 5.58597 7.82922C5.69755 7.81834 5.8089 7.85211 5.89552 7.9231C5.98213 7.99408 6.03692 8.09648 6.04784 8.20775C6.05875 8.31902 6.02489 8.43006 5.9537 8.51644L4.69239 10.0513C4.6647 10.0884 4.63033 10.1202 4.59103 10.1449C4.54513 10.1759 4.49352 10.1976 4.43917 10.2086C4.38483 10.2197 4.32883 10.2199 4.2744 10.2093C4.21996 10.1987 4.16817 10.1775 4.12201 10.1468C4.07585 10.1161 4.03622 10.0767 4.00542 10.0307L3.4536 9.21834ZM3.4536 13.5758C3.42242 13.5298 3.40062 13.4782 3.38945 13.4238C3.37828 13.3694 3.37796 13.3134 3.38851 13.2589C3.39905 13.2044 3.42026 13.1525 3.45091 13.1062C3.48156 13.0599 3.52106 13.0201 3.56715 12.989C3.66024 12.9262 3.77453 12.9028 3.88488 12.9241C3.99524 12.9453 4.09261 13.0094 4.15558 13.1022L4.38644 13.4429L5.30052 12.3329C5.33577 12.2902 5.37912 12.2547 5.4281 12.2287C5.47707 12.2026 5.53072 12.1864 5.58597 12.181C5.64122 12.1756 5.69699 12.1812 5.7501 12.1973C5.80322 12.2134 5.85263 12.2398 5.89552 12.2749C5.9384 12.3101 5.97393 12.3533 6.00007 12.4021C6.0262 12.451 6.04243 12.5045 6.04784 12.5596C6.05324 12.6147 6.04771 12.6703 6.03156 12.7232C6.0154 12.7762 5.98895 12.8255 5.9537 12.8682L4.69239 14.4124C4.66531 14.4507 4.63085 14.4831 4.59103 14.5079C4.54501 14.5388 4.49331 14.5604 4.43889 14.5713C4.38447 14.5823 4.32843 14.5823 4.27398 14.5715C4.21954 14.5607 4.16778 14.5393 4.12169 14.5085C4.07559 14.4776 4.03608 14.438 4.00542 14.3918L3.4536 13.5758ZM3.4536 18.1054C3.42266 18.0594 3.40111 18.0078 3.39017 17.9536C3.37923 17.8993 3.37912 17.8434 3.38984 17.7891C3.40055 17.7348 3.4219 17.6831 3.45264 17.637C3.48339 17.5909 3.52294 17.5513 3.56903 17.5205C3.61512 17.4896 3.66686 17.4681 3.72128 17.4572C3.7757 17.4463 3.83175 17.4462 3.88621 17.4569C3.94068 17.4676 3.9925 17.4889 4.03872 17.5195C4.08494 17.5502 4.12464 17.5896 4.15558 17.6356L4.38644 17.9781L5.30052 16.8682C5.3722 16.7818 5.47536 16.7273 5.5873 16.7168C5.69923 16.7063 5.81078 16.7405 5.89739 16.812C5.98401 16.8835 6.0386 16.9864 6.04916 17.098C6.05972 17.2096 6.02538 17.3209 5.9537 17.4072L4.69239 18.9383C4.6647 18.9755 4.63033 19.0072 4.59103 19.0319C4.54513 19.0629 4.49352 19.0846 4.43917 19.0957C4.38483 19.1067 4.32883 19.107 4.2744 19.0964C4.21996 19.0858 4.16817 19.0645 4.12201 19.0338C4.07585 19.0032 4.03622 18.9637 4.00542 18.9177L3.4536 18.1054ZM4.39208 5.27083C4.20365 5.26963 4.02315 5.19508 3.88905 5.06307C3.87216 5.04622 3.86277 5.02938 3.84588 5.01253C3.74122 4.885 3.68241 4.72619 3.67883 4.56144V3.60872H1.05109C1.03682 3.60814 1.0226 3.61088 1.00956 3.61672C0.996532 3.62257 0.985046 3.63137 0.976017 3.64242C0.95665 3.66288 0.94475 3.68926 0.942231 3.71729V21.9481C0.940398 21.9625 0.942582 21.9771 0.948545 21.9903C0.954506 22.0035 0.964014 22.0148 0.976017 22.023C0.985613 22.0333 0.99721 22.0416 1.01011 22.0474C1.02301 22.0532 1.03695 22.0564 1.05109 22.0566H16.9527C16.9668 22.0564 16.9807 22.0532 16.9936 22.0474C17.0065 22.0416 17.0181 22.0333 17.0277 22.023C17.0394 22.0145 17.0487 22.0032 17.0547 21.99C17.0606 21.9769 17.063 21.9624 17.0615 21.9481V3.71729C17.059 3.68926 17.0471 3.66288 17.0277 3.64242C17.0186 3.63148 17.0071 3.62276 16.9941 3.61692C16.9811 3.61108 16.9669 3.60828 16.9527 3.60872H14.3249V4.56144C14.3215 4.72656 14.262 4.88563 14.156 5.01253C14.141 5.02938 14.1316 5.04622 14.1147 5.06307C13.9806 5.19508 13.8001 5.26963 13.6117 5.27083H4.39208ZM1.05485 23C0.775238 22.9995 0.507221 22.8885 0.309506 22.6914C0.111791 22.4942 0.000496205 22.2269 0 21.9481L0 3.71729C0.000496205 3.43845 0.111791 3.17118 0.309506 2.97401C0.507221 2.77685 0.775238 2.66586 1.05485 2.66536H3.68259V2.14689C3.68259 1.95907 3.75728 1.77892 3.89028 1.64594C4.02328 1.51295 4.20373 1.438 4.39208 1.4375H6.01752V0.786133C6.01788 0.683168 6.03881 0.581306 6.07909 0.4865C6.11938 0.391694 6.17821 0.305845 6.25214 0.233968C6.32393 0.160381 6.4097 0.101792 6.50445 0.061621C6.59919 0.0214501 6.70101 0.000502151 6.80396 0L11.196 0C11.299 0.000709359 11.4007 0.0217514 11.4954 0.0619101C11.5901 0.102069 11.6759 0.160548 11.7479 0.233968C11.8229 0.306942 11.8824 0.39431 11.9227 0.490811C11.9631 0.587313 11.9834 0.690952 11.9825 0.795492V1.4375H13.6079C13.7013 1.4375 13.7938 1.45585 13.8802 1.4915C13.9665 1.52715 14.0449 1.5794 14.1109 1.64528C14.177 1.71115 14.2294 1.78935 14.2651 1.87542C14.3009 1.96149 14.3193 2.05373 14.3193 2.14689V2.66536H16.947C17.227 2.66536 17.4955 2.77613 17.6936 2.97335C17.8917 3.17057 18.0033 3.43813 18.0038 3.71729V21.9481C18.0033 22.2272 17.8917 22.4948 17.6936 22.692C17.4955 22.8892 17.227 23 16.947 23H1.05485ZM14.3343 18.6426C14.4558 18.635 14.5699 18.5815 14.6532 18.493C14.7366 18.4045 14.783 18.2876 14.783 18.1662C14.783 18.0448 14.7366 17.928 14.6532 17.8395C14.5699 17.751 14.4558 17.6975 14.3343 17.6899H7.98832C7.86681 17.6975 7.75276 17.751 7.66941 17.8395C7.58606 17.928 7.53966 18.0448 7.53966 18.1662C7.53966 18.2876 7.58606 18.4045 7.66941 18.493C7.75276 18.5815 7.86681 18.635 7.98832 18.6426H14.3343ZM14.3343 9.50846C14.4558 9.50086 14.5699 9.44737 14.6532 9.35887C14.7366 9.27037 14.783 9.15352 14.783 9.0321C14.783 8.91069 14.7366 8.79384 14.6532 8.70534C14.5699 8.61684 14.4558 8.56334 14.3343 8.55575H7.98832C7.86681 8.56334 7.75276 8.61684 7.66941 8.70534C7.58606 8.79384 7.53966 8.91069 7.53966 9.0321C7.53966 9.15352 7.58606 9.27037 7.66941 9.35887C7.75276 9.44737 7.86681 9.50086 7.98832 9.50846H14.3343ZM14.3343 14.0138C14.4558 14.0062 14.5699 13.9527 14.6532 13.8642C14.7366 13.7757 14.783 13.6588 14.783 13.5374C14.783 13.416 14.7366 13.2991 14.6532 13.2106C14.5699 13.1221 14.4558 13.0686 14.3343 13.061H7.98832C7.86681 13.0686 7.75276 13.1221 7.66941 13.2106C7.58606 13.2991 7.53966 13.416 7.53966 13.5374C7.53966 13.6588 7.58606 13.7757 7.66941 13.8642C7.75276 13.9527 7.86681 14.0062 7.98832 14.0138H14.3343Z" fill="#246BFD"/>
</g>
<defs>
<clipPath id="clip0_43_470">
<rect width="18" height="23" fill="white"/>
</clipPath>
</defs>
</svg>
