<svg width="27" height="15" viewBox="0 0 27 15" fill="none" xmlns="http://www.w3.org/2000/svg">
<g clip-path="url(#clip0_43_472)">
<path fill-rule="evenodd" clip-rule="evenodd" d="M0.558105 13.9214H3.32446C3.22242 13.8953 3.13208 13.8374 3.06737 13.7567C3.00265 13.676 2.96714 13.5769 2.96631 13.4747V0.461637C2.96689 0.339375 3.01731 0.222281 3.1066 0.135828C3.19589 0.0493758 3.31684 0.000559557 3.44312 0L23.4382 0C23.5645 0.000559557 23.6855 0.0493758 23.7747 0.135828C23.864 0.222281 23.9145 0.339375 23.915 0.461637V13.4726C23.915 13.5749 23.8797 13.6744 23.8149 13.7552C23.7501 13.8361 23.6593 13.8938 23.5569 13.9193H26.4485C26.5218 13.9201 26.5942 13.9349 26.6616 13.9629C26.729 13.9908 26.79 14.0313 26.8412 14.0821C26.8924 14.1328 26.9328 14.1929 26.96 14.2588C26.9873 14.3246 27.0009 14.3951 27 14.466C27 14.6093 26.9412 14.7468 26.8365 14.8481C26.7319 14.9495 26.5899 15.0064 26.4419 15.0064H0.558105C0.410087 15.0064 0.26813 14.9495 0.163465 14.8481C0.0588002 14.7468 0 14.6093 0 14.466H0C0.000581255 14.3231 0.059638 14.1862 0.16424 14.0853C0.268842 13.9844 0.410467 13.9278 0.558105 13.9278V13.9214ZM13.4692 3.37186C14.2171 3.37186 14.9483 3.58659 15.5701 3.98888C16.192 4.39118 16.6767 4.96298 16.9629 5.63197C17.2491 6.30096 17.324 7.03711 17.1781 7.74731C17.0322 8.45751 16.672 9.10987 16.1432 9.62189C15.6143 10.1339 14.9405 10.4826 14.207 10.6239C13.4734 10.7651 12.7131 10.6926 12.0221 10.4155C11.3311 10.1384 10.7406 9.66917 10.325 9.06709C9.90952 8.46501 9.68774 7.75716 9.68774 7.03304C9.68774 6.06204 10.0862 5.1308 10.7953 4.4442C11.5045 3.75759 12.4663 3.37186 13.4692 3.37186ZM14.8162 7.25854C15.0095 7.13941 15.0095 7.00539 14.8162 6.89902L12.8254 5.79067C12.6694 5.69494 12.5068 5.75238 12.509 5.95022V8.1882C12.5222 8.40094 12.6497 8.46263 12.8364 8.36264L14.814 7.25854H14.8162ZM13.4692 4.11431C14.0656 4.11389 14.6486 4.28471 15.1447 4.60517C15.6407 4.92563 16.0275 5.38133 16.256 5.91462C16.4845 6.44791 16.5445 7.03484 16.4284 7.60116C16.3124 8.16748 16.0254 8.68774 15.6039 9.09615C15.1824 9.50455 14.6452 9.78275 14.0604 9.89554C13.4755 10.0083 12.8693 9.95066 12.3183 9.72981C11.7673 9.50896 11.2964 9.13486 10.965 8.65483C10.6336 8.1748 10.4568 7.61041 10.4568 7.03304C10.4568 6.25932 10.7741 5.51725 11.339 4.96994C11.9039 4.42263 12.6701 4.11487 13.4692 4.11431ZM3.78149 0.723302H23.1592V13.3428H3.78149V0.723302ZM12.7156 14.1257H14.2822C14.3533 14.1257 14.4215 14.153 14.4718 14.2017C14.5221 14.2503 14.5503 14.3164 14.5503 14.3852C14.5497 14.4537 14.5212 14.5191 14.471 14.5673C14.4208 14.6156 14.3529 14.6426 14.2822 14.6426H12.7156C12.6445 14.6426 12.5763 14.6153 12.526 14.5666C12.4758 14.5179 12.4475 14.4519 12.4475 14.3831C12.4475 14.3142 12.4758 14.2482 12.526 14.1995C12.5763 14.1509 12.6445 14.1235 12.7156 14.1235V14.1257Z" fill="#246BFD"/>
</g>
<defs>
<clipPath id="clip0_43_472">
<rect width="27" height="15" fill="white"/>
</clipPath>
</defs>
</svg>
