<svg width="74" height="42" viewBox="0 0 74 42" fill="none" xmlns="http://www.w3.org/2000/svg">
<g clip-path="url(#clip0_43_448)">
<path fill-rule="evenodd" clip-rule="evenodd" d="M19.662 20.6743C31.2207 20.6743 42.7793 20.6743 54.338 20.6743C54.452 20.6743 54.5444 20.7659 54.5444 20.879V23.8137C54.5444 23.9268 54.4492 24.0198 54.338 24.0198C49.0408 24.0198 43.745 24.0198 38.4477 24.0198V41.7294C38.4477 41.8783 38.325 42 38.1749 42H38.172H38.1663H35.8338H35.828H35.8251C35.675 42 35.5523 41.8783 35.5523 41.7294V24.0198H19.662C19.5509 24.0198 19.4556 23.9268 19.4556 23.8137V20.879C19.4556 20.7659 19.548 20.6743 19.662 20.6743ZM47.9323 17.6523C48.4937 17.6523 48.9498 18.1047 48.9498 18.663C48.9498 19.2199 48.4937 19.6722 47.9323 19.6722H40.418C39.9214 19.6722 39.5086 19.3201 39.4177 18.8548L37.4951 11.2634C37.358 10.7237 37.6899 10.1754 38.2341 10.0408C38.7783 9.90484 39.3311 10.2341 39.4668 10.7738L41.2104 17.6523H47.9323ZM72.0412 38.3897C72.0239 38.2494 71.9604 38.1119 71.8507 38.0031C71.0467 37.2 70.0291 36.5444 68.8715 36.0963C68.0589 35.7814 67.1784 35.5681 66.2547 35.4779L66.4308 32.7322H72.7326C73.3879 32.7322 73.9263 32.1997 73.9263 31.5483C73.9263 26.6439 72.7615 22.9562 73.9263 17.3703C74.2713 15.7155 70.8288 15.4764 70.8288 17.4576V30.028H58.9121C58.2554 30.028 57.717 30.897 57.717 31.5483V32.4717C57.717 32.6148 57.8368 32.7322 57.9811 32.7322H64.3032L64.55 35.4493C63.57 35.5123 62.6346 35.7112 61.7729 36.0247C60.6644 36.4256 59.6786 37.0139 58.8775 37.7397C58.6855 37.9129 58.6177 38.1706 58.6783 38.404C58.368 38.633 58.1688 38.9995 58.1688 39.4132C58.1688 40.1089 58.736 40.673 59.4375 40.673C60.139 40.673 60.7077 40.1089 60.7077 39.4132C60.7077 38.9966 60.5042 38.6287 60.191 38.3982C60.7842 37.9401 61.4742 37.5622 62.2334 37.2874C63.0503 36.991 63.9481 36.8121 64.8979 36.7792L65.0379 38.1406L65.0437 38.1993C64.5067 38.3467 64.1141 38.8349 64.1141 39.4132C64.1141 40.1089 64.6828 40.673 65.3843 40.673C66.0858 40.673 66.6545 40.1089 66.6545 39.4132C66.6545 38.8377 66.2648 38.3539 65.735 38.2021L65.7394 38.1391L65.8375 36.7935C66.744 36.8536 67.5999 37.0469 68.3793 37.3475H68.3808C69.1414 37.641 69.8271 38.0375 70.4102 38.5156C70.1764 38.7432 70.0306 39.061 70.0306 39.4132C70.0306 40.1089 70.5993 40.673 71.3008 40.673C72.0023 40.673 72.5709 40.1089 72.5709 39.4132C72.5709 38.9923 72.3616 38.6187 72.0412 38.3897ZM61.874 0C59.1893 0 57.0141 2.15876 57.0141 4.82C57.0141 7.48267 59.1893 9.64143 61.874 9.64143C64.5587 9.64143 66.7339 7.48267 66.7339 4.82C66.7339 2.15876 64.5587 0 61.874 0V0ZM59.8532 18.9078L59.9456 24.6239H53.9122C52.6334 24.6239 51.5884 25.6618 51.5884 26.9287V29.2335H51.6129V38.2422C51.6129 39.5077 52.6579 40.5456 53.9353 40.5456H56.2592V29.8949C56.2592 28.8856 56.6417 29.2335 57.7935 29.2335H62.9796V29.2178H65.9588C67.8799 29.2178 69.4532 27.6588 69.4532 25.7534V13.7342C69.4532 11.7945 67.8539 10.2098 65.8996 10.2098H64.1415C60.4811 10.2098 61.0657 12.7092 59.4447 14.2796C57.8469 15.83 58.2482 16.0089 56.0658 16.0089H51.3574C47.4603 16.0089 49.5561 19.7667 51.8626 19.6508H56.1769C58.1009 19.6508 58.2626 19.9557 59.8532 18.9078ZM26.0678 19.6722C25.5063 19.6722 25.0502 19.2199 25.0502 18.663C25.0502 18.1047 25.5063 17.6523 26.0678 17.6523H32.7896L34.5333 10.7738C34.6689 10.2341 35.2218 9.90484 35.7659 10.0408C36.3101 10.1754 36.6421 10.7237 36.5049 11.2634L34.5823 18.8548C34.4914 19.3201 34.0786 19.6722 33.5821 19.6722H26.0678ZM1.9588 38.3897C1.97613 38.2494 2.03963 38.1119 2.14933 38.0031C2.9533 37.2 3.97089 36.5444 5.12849 36.0963C5.94112 35.7814 6.82159 35.5681 7.74536 35.4779L7.56927 32.7322H1.26742C0.612121 32.7322 0.0737357 32.1997 0.0737357 31.5483C0.0737357 26.6439 1.23855 22.9562 0.0737357 17.3703C-0.271235 15.7155 3.17125 15.4764 3.17125 17.4576V30.028H15.0879C15.7446 30.028 16.283 30.897 16.283 31.5483V32.4717C16.283 32.6148 16.1632 32.7322 16.0189 32.7322H9.69682L9.45 35.4493C10.4301 35.5123 11.3654 35.7112 12.2271 36.0247C13.3356 36.4256 14.3215 37.0139 15.1225 37.7397C15.3145 37.9129 15.3823 38.1706 15.3217 38.404C15.632 38.633 15.8312 38.9995 15.8312 39.4132C15.8312 40.1089 15.264 40.673 14.5625 40.673C13.861 40.673 13.2923 40.1089 13.2923 39.4132C13.2923 38.9966 13.4958 38.6273 13.809 38.3982C13.2158 37.9401 12.5259 37.5622 11.7666 37.2874C10.9497 36.991 10.0519 36.8121 9.10215 36.7792L8.96214 38.1406L8.95636 38.1993C9.49331 38.3467 9.88591 38.8349 9.88591 39.4132C9.88591 40.1089 9.31721 40.673 8.61572 40.673C7.91424 40.673 7.34554 40.1089 7.34554 39.4132C7.34554 38.8377 7.73526 38.3524 8.26498 38.2021L8.26065 38.1377L8.1625 36.7935C7.25605 36.8536 6.40012 37.0469 5.62069 37.3475H5.61924C4.85858 37.641 4.17297 38.0375 3.58984 38.5156C3.82367 38.7432 3.96945 39.061 3.96945 39.4132C3.96945 40.1089 3.40075 40.673 2.69926 40.673C1.99778 40.673 1.42908 40.1089 1.42908 39.4132C1.42908 38.9923 1.63837 38.6187 1.9588 38.3897ZM12.1261 0C14.8108 0 16.986 2.15876 16.986 4.82C16.986 7.48267 14.8108 9.64143 12.1261 9.64143C9.44134 9.64143 7.26615 7.48267 7.26615 4.82C7.26615 2.15876 9.44134 0 12.1261 0V0ZM14.1468 18.9078L14.0544 24.6239H20.0878C21.3666 24.6239 22.4117 25.6618 22.4117 26.9287V29.2335H22.3871V38.2422C22.3871 39.5077 21.3421 40.5456 20.0647 40.5456H17.7408V29.8949C17.7408 28.8856 17.3583 29.2335 16.2065 29.2335H11.0204V29.2178H8.04125C6.1201 29.2178 4.5468 27.6588 4.5468 25.7534V13.7342C4.5468 11.7945 6.14608 10.2098 8.10043 10.2098H9.85848C13.5189 10.2098 12.9344 12.7092 14.5553 14.2796C16.1531 15.83 15.7519 16.0089 17.9343 16.0089H22.6426C26.5398 16.0089 24.444 19.7667 22.1374 19.6508H17.8231C15.8991 19.6508 15.7374 19.9557 14.1468 18.9078Z" fill="#246BFD"/>
</g>
<defs>
<clipPath id="clip0_43_448">
<rect width="74" height="42" fill="white"/>
</clipPath>
</defs>
</svg>
